<mxfile host="65bd71144e">
    <diagram id="QMNwIq3Yd1SpAA4LmWfU" name="ページ1">
        <mxGraphModel dx="1103" dy="548" grid="1" gridSize="10" guides="1" tooltips="1" connect="1" arrows="1" fold="1" page="1" pageScale="1" pageWidth="827" pageHeight="1169" math="1" shadow="0">
            <root>
                <mxCell id="0"/>
                <mxCell id="1" parent="0"/>
                <mxCell id="74" value="" style="shape=note;whiteSpace=wrap;html=1;backgroundOutline=1;darkOpacity=0.05;fontFamily=Helvetica;fontSize=11;fontColor=default;labelBackgroundColor=default;size=10;" vertex="1" parent="1">
                    <mxGeometry x="550" y="300" width="130" height="130" as="geometry"/>
                </mxCell>
                <mxCell id="3" style="edgeStyle=none;html=1;exitX=0;exitY=0.5;exitDx=0;exitDy=0;endArrow=none;endFill=0;startArrow=open;startFill=0;labelBackgroundColor=none;fontFamily=Lucida Console;" edge="1" parent="1" source="2">
                    <mxGeometry relative="1" as="geometry">
                        <mxPoint x="120" y="365" as="targetPoint"/>
                    </mxGeometry>
                </mxCell>
                <mxCell id="12" style="edgeStyle=none;html=1;exitX=1;exitY=0.5;exitDx=0;exitDy=0;endArrow=open;endFill=0;labelBackgroundColor=none;fontFamily=Lucida Console;" edge="1" parent="1" source="2">
                    <mxGeometry relative="1" as="geometry">
                        <mxPoint x="300" y="365" as="targetPoint"/>
                    </mxGeometry>
                </mxCell>
                <mxCell id="20" style="edgeStyle=none;shape=connector;rounded=1;html=1;exitX=0.25;exitY=1;exitDx=0;exitDy=0;strokeColor=default;align=center;verticalAlign=middle;fontFamily=Lucida Console;fontSize=11;fontColor=default;labelBackgroundColor=none;startArrow=open;startFill=0;endArrow=none;endFill=0;" edge="1" parent="1" source="2">
                    <mxGeometry relative="1" as="geometry">
                        <mxPoint x="180" y="445" as="targetPoint"/>
                    </mxGeometry>
                </mxCell>
                <mxCell id="2" value="" style="rounded=0;whiteSpace=wrap;html=1;labelBackgroundColor=none;fontFamily=Lucida Console;" vertex="1" parent="1">
                    <mxGeometry x="150" y="305" width="120" height="120" as="geometry"/>
                </mxCell>
                <mxCell id="6" value="&lt;font&gt;my_stm1&lt;/font&gt;" style="text;html=1;align=center;verticalAlign=middle;resizable=0;points=[];autosize=1;strokeColor=none;fillColor=none;fontSize=16;fontFamily=Lucida Console;labelBackgroundColor=none;" vertex="1" parent="1">
                    <mxGeometry x="165" y="275" width="90" height="30" as="geometry"/>
                </mxCell>
                <mxCell id="7" value="&lt;font&gt;p&lt;/font&gt;" style="text;html=1;align=center;verticalAlign=middle;resizable=0;points=[];autosize=1;strokeColor=none;fillColor=none;fontSize=16;fontFamily=Lucida Console;labelBackgroundColor=none;" vertex="1" parent="1">
                    <mxGeometry x="90" y="350" width="30" height="30" as="geometry"/>
                </mxCell>
                <mxCell id="13" value="&lt;font&gt;y&lt;/font&gt;" style="text;html=1;align=center;verticalAlign=middle;resizable=0;points=[];autosize=1;strokeColor=none;fillColor=none;fontSize=16;fontFamily=Lucida Console;labelBackgroundColor=none;" vertex="1" parent="1">
                    <mxGeometry x="290" y="350" width="30" height="30" as="geometry"/>
                </mxCell>
                <mxCell id="15" style="edgeStyle=none;html=1;exitX=0;exitY=0.5;exitDx=0;exitDy=0;startArrow=none;startFill=0;endArrow=none;endFill=0;labelBackgroundColor=none;fontFamily=Lucida Console;" edge="1" parent="1" source="14">
                    <mxGeometry relative="1" as="geometry">
                        <mxPoint x="230" y="445" as="targetPoint"/>
                    </mxGeometry>
                </mxCell>
                <mxCell id="14" value="" style="triangle;whiteSpace=wrap;html=1;rotation=-90;labelBackgroundColor=none;fontFamily=Lucida Console;" vertex="1" parent="1">
                    <mxGeometry x="225" y="412.5" width="10" height="15" as="geometry"/>
                </mxCell>
                <mxCell id="16" value="&lt;font&gt;clock&lt;/font&gt;" style="text;html=1;align=center;verticalAlign=middle;resizable=0;points=[];autosize=1;strokeColor=none;fillColor=none;fontSize=16;fontFamily=Lucida Console;labelBackgroundColor=none;" vertex="1" parent="1">
                    <mxGeometry x="195" y="445" width="70" height="30" as="geometry"/>
                </mxCell>
                <mxCell id="21" value="&lt;font&gt;reset&lt;/font&gt;" style="text;html=1;align=center;verticalAlign=middle;resizable=0;points=[];autosize=1;strokeColor=none;fillColor=none;fontSize=16;fontFamily=Lucida Console;labelBackgroundColor=none;" vertex="1" parent="1">
                    <mxGeometry x="130" y="445" width="70" height="30" as="geometry"/>
                </mxCell>
                <mxCell id="23" value="&lt;span&gt;S/&lt;/span&gt;&lt;span style=&quot;&quot;&gt;y&lt;/span&gt;" style="ellipse;whiteSpace=wrap;html=1;aspect=fixed;fontFamily=Lucida Console;fontSize=14;fontColor=default;labelBackgroundColor=none;" vertex="1" parent="1">
                    <mxGeometry x="556.5" y="330" width="42.5" height="42.5" as="geometry"/>
                </mxCell>
                <mxCell id="49" style="edgeStyle=none;shape=connector;curved=1;rounded=0;html=1;exitX=1;exitY=1;exitDx=0;exitDy=0;entryX=0;entryY=1;entryDx=0;entryDy=0;strokeColor=default;align=center;verticalAlign=middle;fontFamily=Lucida Console;fontSize=11;fontColor=default;labelBackgroundColor=none;startArrow=none;startFill=0;endArrow=open;endFill=0;" edge="1" parent="1" source="24" target="44">
                    <mxGeometry relative="1" as="geometry">
                        <Array as="points"/>
                    </mxGeometry>
                </mxCell>
                <mxCell id="24" value="&lt;span&gt;SB/&lt;/span&gt;&lt;span style=&quot;&quot;&gt;1&lt;/span&gt;" style="ellipse;whiteSpace=wrap;html=1;aspect=fixed;fontFamily=Lucida Console;fontSize=16;fontColor=default;labelBackgroundColor=none;" vertex="1" parent="1">
                    <mxGeometry x="320" y="392.5" width="52.5" height="52.5" as="geometry"/>
                </mxCell>
                <mxCell id="40" style="edgeStyle=none;shape=connector;rounded=0;html=1;strokeColor=default;align=center;verticalAlign=middle;fontFamily=Lucida Console;fontSize=14;fontColor=default;labelBackgroundColor=none;startArrow=none;startFill=0;endArrow=open;endFill=0;curved=1;" edge="1" parent="1">
                    <mxGeometry relative="1" as="geometry">
                        <mxPoint x="600.25" y="402.5" as="sourcePoint"/>
                        <mxPoint x="560.25" y="402.5" as="targetPoint"/>
                        <Array as="points"/>
                    </mxGeometry>
                </mxCell>
                <mxCell id="42" value="p" style="text;html=1;align=center;verticalAlign=middle;resizable=0;points=[];autosize=1;strokeColor=none;fillColor=none;fontFamily=Lucida Console;fontSize=14;fontColor=default;labelBackgroundColor=none;" vertex="1" parent="1">
                    <mxGeometry x="566.5" y="372.5" width="30" height="30" as="geometry"/>
                </mxCell>
                <mxCell id="43" value="凡例" style="text;html=1;align=center;verticalAlign=middle;resizable=0;points=[];autosize=1;strokeColor=none;fillColor=none;fontFamily=Lucida Console;fontSize=14;fontColor=default;labelBackgroundColor=none;" vertex="1" parent="1">
                    <mxGeometry x="552.75" y="300" width="50" height="30" as="geometry"/>
                </mxCell>
                <mxCell id="48" style="edgeStyle=none;shape=connector;curved=1;rounded=0;html=1;exitX=0;exitY=0;exitDx=0;exitDy=0;entryX=1;entryY=0;entryDx=0;entryDy=0;strokeColor=default;align=center;verticalAlign=middle;fontFamily=Lucida Console;fontSize=11;fontColor=default;labelBackgroundColor=none;startArrow=none;startFill=0;endArrow=open;endFill=0;" edge="1" parent="1" source="44" target="24">
                    <mxGeometry relative="1" as="geometry">
                        <Array as="points"/>
                    </mxGeometry>
                </mxCell>
                <mxCell id="44" value="&lt;span&gt;SA/&lt;/span&gt;&lt;span style=&quot;&quot;&gt;0&lt;/span&gt;" style="ellipse;whiteSpace=wrap;html=1;aspect=fixed;fontFamily=Lucida Console;fontSize=16;fontColor=default;labelBackgroundColor=none;" vertex="1" parent="1">
                    <mxGeometry x="439" y="392.5" width="52.5" height="52.5" as="geometry"/>
                </mxCell>
                <mxCell id="51" style="edgeStyle=none;shape=connector;curved=1;rounded=0;html=1;exitX=1;exitY=0.5;exitDx=0;exitDy=0;entryX=0.5;entryY=0;entryDx=0;entryDy=0;strokeColor=default;align=center;verticalAlign=middle;fontFamily=Lucida Console;fontSize=11;fontColor=default;labelBackgroundColor=none;startArrow=none;startFill=0;endArrow=open;endFill=0;" edge="1" parent="1" source="45" target="44">
                    <mxGeometry relative="1" as="geometry">
                        <Array as="points">
                            <mxPoint x="459" y="355"/>
                        </Array>
                    </mxGeometry>
                </mxCell>
                <mxCell id="45" value="&lt;span&gt;SC/&lt;/span&gt;&lt;span style=&quot;&quot;&gt;0&lt;/span&gt;" style="ellipse;whiteSpace=wrap;html=1;aspect=fixed;fontFamily=Lucida Console;fontSize=16;fontColor=default;labelBackgroundColor=none;" vertex="1" parent="1">
                    <mxGeometry x="379" y="305" width="52.5" height="52.5" as="geometry"/>
                </mxCell>
                <mxCell id="50" style="edgeStyle=none;shape=connector;curved=1;rounded=0;html=1;exitX=0.5;exitY=0;exitDx=0;exitDy=0;entryX=0;entryY=0.571;entryDx=0;entryDy=0;entryPerimeter=0;strokeColor=default;align=center;verticalAlign=middle;fontFamily=Lucida Console;fontSize=11;fontColor=default;labelBackgroundColor=none;startArrow=none;startFill=0;endArrow=open;endFill=0;" edge="1" parent="1" source="24" target="45">
                    <mxGeometry relative="1" as="geometry">
                        <Array as="points">
                            <mxPoint x="349" y="355"/>
                        </Array>
                    </mxGeometry>
                </mxCell>
                <mxCell id="61" style="edgeStyle=none;shape=connector;curved=1;rounded=0;html=1;exitX=0;exitY=1;exitDx=0;exitDy=0;entryX=1;entryY=0;entryDx=0;entryDy=0;strokeColor=default;align=center;verticalAlign=middle;fontFamily=Lucida Console;fontSize=11;fontColor=default;labelBackgroundColor=none;startArrow=none;startFill=0;endArrow=open;endFill=0;" edge="1" parent="1" source="60" target="44">
                    <mxGeometry relative="1" as="geometry"/>
                </mxCell>
                <mxCell id="60" value="" style="ellipse;whiteSpace=wrap;html=1;aspect=fixed;fontFamily=Lucida Console;fontSize=11;fontColor=default;labelBackgroundColor=none;fillColor=#000000;" vertex="1" parent="1">
                    <mxGeometry x="497.5" y="372.5" width="15" height="15" as="geometry"/>
                </mxCell>
                <mxCell id="62" value="reset" style="text;html=1;align=center;verticalAlign=middle;resizable=0;points=[];autosize=1;strokeColor=none;fillColor=none;fontFamily=Lucida Console;fontSize=16;fontColor=default;labelBackgroundColor=none;" vertex="1" parent="1">
                    <mxGeometry x="480" y="350" width="70" height="30" as="geometry"/>
                </mxCell>
                <mxCell id="63" value="S : 状態&lt;div&gt;y : 出力&lt;/div&gt;" style="text;html=1;align=left;verticalAlign=middle;resizable=0;points=[];autosize=1;strokeColor=none;fillColor=none;fontFamily=Lucida Console;fontSize=14;fontColor=default;labelBackgroundColor=default;" vertex="1" parent="1">
                    <mxGeometry x="606.5" y="326.25" width="90" height="50" as="geometry"/>
                </mxCell>
                <mxCell id="65" value="状態遷移&lt;div&gt;p : 入力&lt;/div&gt;" style="text;html=1;align=left;verticalAlign=middle;resizable=0;points=[];autosize=1;strokeColor=none;fillColor=none;fontFamily=Lucida Console;fontSize=14;fontColor=default;labelBackgroundColor=default;" vertex="1" parent="1">
                    <mxGeometry x="606.5" y="376.25" width="90" height="50" as="geometry"/>
                </mxCell>
                <mxCell id="66" style="edgeStyle=none;shape=connector;curved=1;rounded=0;html=1;exitX=1;exitY=0.5;exitDx=0;exitDy=0;entryX=0.5;entryY=1;entryDx=0;entryDy=0;strokeColor=default;align=center;verticalAlign=middle;fontFamily=Helvetica;fontSize=11;fontColor=default;labelBackgroundColor=default;startArrow=none;startFill=0;endArrow=open;endFill=0;" edge="1" parent="1" source="44" target="44">
                    <mxGeometry relative="1" as="geometry">
                        <Array as="points">
                            <mxPoint x="530" y="460"/>
                        </Array>
                    </mxGeometry>
                </mxCell>
                <mxCell id="67" value="1" style="text;html=1;align=center;verticalAlign=middle;resizable=0;points=[];autosize=1;strokeColor=none;fillColor=none;fontFamily=Lucida Console;fontSize=16;fontColor=default;labelBackgroundColor=none;" vertex="1" parent="1">
                    <mxGeometry x="450.25" y="342.5" width="30" height="30" as="geometry"/>
                </mxCell>
                <mxCell id="68" value="1" style="text;html=1;align=center;verticalAlign=middle;resizable=0;points=[];autosize=1;strokeColor=none;fillColor=none;fontFamily=Lucida Console;fontSize=16;fontColor=default;labelBackgroundColor=none;" vertex="1" parent="1">
                    <mxGeometry x="390.25" y="376.25" width="30" height="30" as="geometry"/>
                </mxCell>
                <mxCell id="69" value="1" style="text;html=1;align=center;verticalAlign=middle;resizable=0;points=[];autosize=1;strokeColor=none;fillColor=none;fontFamily=Lucida Console;fontSize=16;fontColor=default;labelBackgroundColor=none;" vertex="1" parent="1">
                    <mxGeometry x="388.25" y="434" width="30" height="30" as="geometry"/>
                </mxCell>
                <mxCell id="70" value="0" style="text;html=1;align=center;verticalAlign=middle;resizable=0;points=[];autosize=1;strokeColor=none;fillColor=none;fontFamily=Lucida Console;fontSize=16;fontColor=default;labelBackgroundColor=none;" vertex="1" parent="1">
                    <mxGeometry x="331.25" y="342.5" width="30" height="30" as="geometry"/>
                </mxCell>
                <mxCell id="71" style="edgeStyle=none;shape=connector;curved=1;rounded=0;html=1;exitX=0;exitY=0;exitDx=0;exitDy=0;entryX=1;entryY=0;entryDx=0;entryDy=0;strokeColor=default;align=center;verticalAlign=middle;fontFamily=Helvetica;fontSize=11;fontColor=default;labelBackgroundColor=default;startArrow=none;startFill=0;endArrow=open;endFill=0;" edge="1" parent="1" source="45" target="45">
                    <mxGeometry relative="1" as="geometry">
                        <Array as="points">
                            <mxPoint x="405" y="250"/>
                        </Array>
                    </mxGeometry>
                </mxCell>
                <mxCell id="72" value="0" style="text;html=1;align=center;verticalAlign=middle;resizable=0;points=[];autosize=1;strokeColor=none;fillColor=none;fontFamily=Lucida Console;fontSize=16;fontColor=default;labelBackgroundColor=none;" vertex="1" parent="1">
                    <mxGeometry x="372.5" y="275" width="30" height="30" as="geometry"/>
                </mxCell>
                <mxCell id="73" value="0" style="text;html=1;align=center;verticalAlign=middle;resizable=0;points=[];autosize=1;strokeColor=none;fillColor=none;fontFamily=Lucida Console;fontSize=16;fontColor=default;labelBackgroundColor=none;" vertex="1" parent="1">
                    <mxGeometry x="491.5" y="412.5" width="30" height="30" as="geometry"/>
                </mxCell>
            </root>
        </mxGraphModel>
    </diagram>
</mxfile>